<svg width="543" height="405" viewBox="0 0 543 405" fill="none" xmlns="http://www.w3.org/2000/svg">
<path d="M187.258 136.331V75.1662V14.001H529V384.827H423.249L422.693 372.985C422.47 371.539 421.246 357.972 419.91 342.625C418.685 327.389 417.127 308.595 415.123 287.02L412.785 289.912C411.561 291.58 407.554 296.584 404.103 301.033C400.652 305.592 393.416 313.599 387.962 318.937C382.619 324.164 375.383 330.837 372.044 333.728C368.704 336.62 360.467 342.625 353.676 347.073C346.886 351.633 336.422 357.749 330.3 360.752C324.177 363.866 317.164 367.202 314.716 368.203C312.267 369.204 304.808 371.984 298.018 374.32C291.228 376.655 281.543 379.658 276.311 380.992C271.079 382.327 261.617 384.328 255.161 385.552C248.705 386.775 235.681 388.443 226.219 389.333C216.757 390.222 203.955 391.001 197.833 391.001C191.711 391.001 178.464 390.222 168.334 389.333C158.204 388.443 142.954 386.441 134.383 384.884C125.811 383.328 113.01 380.436 105.997 378.546C98.9839 376.766 88.1862 373.43 82.0638 371.317C69.6036 367.017 61.167 362.671 49.9018 356.497L39 349.233L61.167 345.964C70.6289 345.075 85.0693 341.846 94.3086 340.401C103.437 338.844 120.023 335.285 131.043 332.616C142.063 329.836 157.314 325.61 164.995 323.052C172.676 320.494 183.473 316.713 188.928 314.6C194.382 312.376 206.182 307.149 215.087 302.923C223.992 298.697 235.792 292.692 241.247 289.578C246.701 286.353 256.274 280.459 262.397 276.344C268.519 272.34 278.315 265.334 284.103 260.997C289.892 256.66 300.467 247.652 307.48 240.979C314.493 234.418 325.068 223.297 330.968 216.291C336.868 209.285 344.66 199.387 348.333 194.16C351.895 188.933 357.684 179.925 361.135 174.143C364.585 168.36 369.929 158.128 373.045 151.345C376.162 144.561 378.723 138.444 378.723 137.777C378.723 136.665 358.797 136.331 187.258 136.331Z" fill="black" stroke="black" stroke-width="28"/>
</svg>
