<svg version="1.2" xmlns="http://www.w3.org/2000/svg" viewBox="0 0 364 365" width="364" height="365"><defs><clipPath clipPathUnits="userSpaceOnUse" id="cp1"><path d="m111.44 167.36h142.26v63.08h-142.26z"/></clipPath></defs><style></style><path  d="m288.2 1.3h-212.4q-3.7 0-7.4 0.4-3.7 0.4-7.4 1.1-3.6 0.7-7.2 1.8-3.5 1.1-7 2.5-3.4 1.5-6.7 3.2-3.3 1.8-6.4 3.8-3.1 2.1-5.9 4.5-2.9 2.3-5.6 5-2.6 2.6-5 5.5-2.3 2.9-4.4 6-2.1 3.1-3.8 6.3-1.8 3.3-3.2 6.8-1.4 3.4-2.5 7-1.1 3.5-1.8 7.2-0.8 3.6-1.1 7.3-0.4 3.7-0.4 7.5v15.1q0 4.8 1 9.5 1 4.7 3 9.1 1.9 4.4 4.8 8.2 2.8 3.9 6.4 7.1v163.3q0 3.7 0.3 7.4 0.4 3.7 1.1 7.4 0.8 3.6 1.9 7.2 1 3.6 2.5 7 1.4 3.4 3.1 6.7 1.8 3.3 3.9 6.4 2 3.1 4.4 6 2.4 2.9 5 5.5 2.6 2.6 5.5 5 2.9 2.4 6 4.4 3.1 2.1 6.4 3.9 3.3 1.7 6.7 3.1 3.4 1.5 7 2.5 3.6 1.1 7.2 1.9 3.7 0.7 7.4 1.1 3.7 0.3 7.4 0.3h182q3.7 0 7.4-0.3 3.7-0.4 7.4-1.1 3.6-0.8 7.2-1.9 3.6-1 7-2.5 3.4-1.4 6.7-3.1 3.3-1.8 6.4-3.9 3.1-2 6-4.4 2.9-2.4 5.5-5 2.6-2.6 5-5.5 2.4-2.9 4.4-6 2.1-3.1 3.9-6.4 1.7-3.3 3.1-6.7 1.5-3.4 2.5-7 1.1-3.6 1.9-7.2 0.7-3.7 1.1-7.4 0.3-3.7 0.3-7.4v-163.3q3.6-3.2 6.4-7.1 2.9-3.8 4.8-8.2 2-4.4 3-9.1 1-4.7 1-9.5v-15.1q0-3.8-0.4-7.5-0.3-3.7-1.1-7.3-0.7-3.7-1.8-7.2-1.1-3.6-2.5-7-1.4-3.5-3.2-6.8-1.7-3.2-3.8-6.3-2.1-3.1-4.4-6-2.4-2.9-5-5.5-2.7-2.7-5.5-5-2.9-2.4-6-4.5-3.1-2-6.4-3.8-3.3-1.7-6.7-3.2-3.5-1.4-7-2.5-3.6-1.1-7.2-1.8-3.7-0.7-7.4-1.1-3.7-0.4-7.4-0.4zm-257.9 75.9q0-2.3 0.3-4.5 0.2-2.2 0.6-4.4 0.4-2.2 1.1-4.3 0.6-2.2 1.5-4.2 0.9-2.1 1.9-4.1 1.1-2 2.3-3.8 1.2-1.9 2.7-3.6 1.4-1.7 3-3.3 1.5-1.6 3.3-3 1.7-1.4 3.6-2.7 1.8-1.2 3.8-2.3 2-1 4-1.9 2.1-0.8 4.2-1.5 2.2-0.6 4.4-1.1 2.1-0.4 4.4-0.6 2.2-0.2 4.4-0.2h212.4q2.2 0 4.4 0.2 2.3 0.2 4.4 0.6 2.2 0.5 4.4 1.1 2.1 0.7 4.2 1.5 2 0.9 4 1.9 2 1.1 3.8 2.3 1.9 1.3 3.6 2.7 1.8 1.4 3.3 3 1.6 1.6 3 3.3 1.5 1.7 2.7 3.6 1.2 1.8 2.3 3.8 1 2 1.9 4.1 0.9 2 1.5 4.2 0.7 2.1 1.1 4.3 0.4 2.2 0.6 4.4 0.3 2.2 0.3 4.5v15.1q0 1.5-0.3 3-0.3 1.5-0.9 2.8-0.6 1.4-1.4 2.7-0.8 1.2-1.9 2.3-1 1-2.3 1.8-1.2 0.9-2.6 1.4-1.4 0.6-2.8 0.9-1.5 0.3-3 0.3h-273q-1.5 0-3-0.3-1.4-0.3-2.8-0.9-1.4-0.5-2.6-1.4-1.3-0.8-2.3-1.8-1.1-1.1-1.9-2.3-0.8-1.3-1.4-2.7-0.6-1.3-0.9-2.8-0.3-1.5-0.3-3zm288.2 212.4q0 2.2-0.2 4.4-0.2 2.3-0.7 4.4-0.4 2.2-1.1 4.4-0.6 2.1-1.5 4.2-0.8 2-1.9 4-1 2-2.3 3.8-1.2 1.9-2.6 3.6-1.4 1.8-3 3.3-1.6 1.6-3.3 3-1.8 1.5-3.6 2.7-1.9 1.2-3.9 2.3-1.9 1-4 1.9-2.1 0.9-4.2 1.5-2.1 0.7-4.3 1.1-2.2 0.4-4.4 0.6-2.3 0.3-4.5 0.3h-182q-2.2 0-4.5-0.3-2.2-0.2-4.4-0.6-2.2-0.4-4.3-1.1-2.1-0.6-4.2-1.5-2.1-0.9-4-1.9-2-1.1-3.9-2.3-1.8-1.2-3.6-2.7-1.7-1.4-3.3-3-1.6-1.5-3-3.3-1.4-1.7-2.6-3.6-1.3-1.8-2.3-3.8-1.1-2-1.9-4-0.9-2.1-1.5-4.2-0.7-2.2-1.1-4.4-0.5-2.1-0.7-4.4-0.2-2.2-0.2-4.4v-151.7h273z"/><g clip-path="url(#cp1)"></g><path  d="m234.6 255.4c7.5 7.5 7.5 19.6 0 27.1-7.5 7.4-19.6 7.4-27.1 0l-24.9-25-25 25c-7.5 7.4-19.6 7.4-27.1 0-7.4-7.5-7.4-19.6 0-27.1l25-25-25-24.9c-7.4-7.5-7.4-19.6 0-27.1 7.5-7.5 19.6-7.5 27.1 0l25 25 24.9-25c7.5-7.5 19.6-7.5 27.1 0 7.5 7.5 7.5 19.6 0 27.1l-25 24.9z"/></svg>